<svg width="137" height="32" viewBox="0 0 137 32" fill="none" xmlns="http://www.w3.org/2000/svg">
<g clip-path="url(#clip0_2580_5678)">
<path d="M36.438 24.7825V10.4526H41.7402C42.7218 10.4171 43.698 10.6131 44.5898 11.0248C45.2952 11.3707 45.8808 11.9199 46.2715 12.6016C46.6411 13.2948 46.83 14.07 46.8205 14.8555C46.8298 15.6173 46.6448 16.369 46.2832 17.0396C45.9058 17.7261 45.3271 18.2803 44.6249 18.6277C43.7292 19.0682 42.7374 19.277 41.7402 19.2351H39.054V24.7825H36.438ZM39.054 17.1097H41.5767C41.9295 17.1437 42.2855 17.1073 42.6243 17.0031C42.963 16.8988 43.2777 16.7288 43.5504 16.5024C43.76 16.2848 43.9221 16.026 44.0267 15.7425C44.1312 15.4591 44.1759 15.1571 44.1577 14.8555C44.1756 14.5504 44.131 14.2451 44.0265 13.9579C43.9221 13.6707 43.76 13.4078 43.5504 13.1855C42.9972 12.7327 42.2887 12.5147 41.5767 12.5782H39.054V17.1097Z" fill="white"/>
<path d="M51.1651 25.0277C50.4222 25.0551 49.6829 24.9114 49.0045 24.6075C48.4919 24.3671 48.0613 23.9813 47.7665 23.498C47.4869 23.0328 47.3414 22.4991 47.3461 21.9563C47.3365 21.5015 47.4378 21.0511 47.6413 20.6442C47.8448 20.2372 48.1443 19.8859 48.514 19.6206C49.4912 18.9675 50.6584 18.6592 51.8307 18.7447H54.4118V18.4994C54.4365 18.2141 54.3956 17.9269 54.2924 17.6597C54.1891 17.3926 54.0263 17.1524 53.8162 16.9578C53.3997 16.6244 52.8779 16.4506 52.3446 16.4673C51.8552 16.457 51.373 16.5864 50.9548 16.8409C50.7544 16.9701 50.5848 17.1418 50.4577 17.3435C50.3306 17.5453 50.2491 17.7722 50.219 18.0087H47.6614C47.7111 17.3059 47.9716 16.6344 48.4089 16.0819C48.8435 15.5252 49.4147 15.0906 50.0672 14.8204C50.808 14.5179 51.603 14.371 52.403 14.3885C53.638 14.3198 54.8555 14.7062 55.8249 15.4745C56.2472 15.8618 56.5776 16.3388 56.7918 16.8702C57.006 17.4017 57.0987 17.9743 57.0629 18.5462V24.7825H54.8322L54.587 23.1476C54.2897 23.6961 53.8601 24.1617 53.3373 24.5022C52.6827 24.8921 51.9256 25.0753 51.1651 25.0277ZM51.749 22.9839C52.0779 23.0038 52.4069 22.9479 52.7106 22.8203C53.0144 22.6927 53.2848 22.497 53.5008 22.2483C53.9309 21.7273 54.2061 21.096 54.2951 20.4263H52.0644C51.5381 20.3782 51.0111 20.5101 50.5694 20.8001C50.4265 20.9101 50.311 21.0518 50.232 21.2139C50.153 21.376 50.1126 21.5542 50.114 21.7345C50.1066 21.9141 50.1446 22.0925 50.2242 22.2537C50.3037 22.4149 50.4224 22.5538 50.5694 22.6572C50.9163 22.8923 51.3306 23.0069 51.749 22.9839Z" fill="white"/>
<path d="M60.8468 24.7824L57.8804 14.6336H60.473L62.2366 21.9445L64.2803 14.6336H67.1884L69.2439 21.9445L71.0191 14.6336H73.6234L70.6337 24.7824H67.9124L65.7402 17.1912L63.568 24.7824H60.8468Z" fill="white"/>
<path d="M74.7678 24.7824V14.6336H77.1036L77.3139 16.3504C77.6184 15.7515 78.0887 15.2529 78.6687 14.9139C79.3091 14.5522 80.0354 14.3707 80.7708 14.3884C81.315 14.3575 81.8594 14.4461 82.3658 14.6479C82.8721 14.8496 83.3283 15.1596 83.7022 15.5563C84.4643 16.5583 84.834 17.8044 84.7416 19.0599V24.7941H82.1255V19.3051C82.1681 18.5988 81.9795 17.8978 81.5884 17.3081C81.3886 17.0667 81.1334 16.8769 80.8447 16.7549C80.5561 16.633 80.2423 16.5822 79.9299 16.6073C79.5894 16.5978 79.2508 16.6631 78.9381 16.7983C78.6254 16.9335 78.3461 17.1354 78.1196 17.3899C77.6175 17.9941 77.363 18.766 77.4072 19.5503V24.7941L74.7678 24.7824Z" fill="white"/>
<path d="M90.8963 25.0275C90.0967 25.0405 89.3026 24.8938 88.5605 24.5956C87.9222 24.3288 87.3603 23.9073 86.9255 23.3692C86.5155 22.8511 86.2605 22.2275 86.1897 21.5707H88.8291C88.9188 21.9796 89.1557 22.3414 89.4948 22.5868C89.9009 22.8814 90.395 23.0295 90.8963 23.0071C91.345 23.0441 91.7922 22.9201 92.1576 22.657C92.2789 22.5627 92.3775 22.4423 92.4463 22.3049C92.515 22.1674 92.552 22.0163 92.5546 21.8626C92.5695 21.671 92.5218 21.4796 92.4186 21.3175C92.3154 21.1553 92.1623 21.031 91.9824 20.9633C91.4614 20.771 90.9265 20.6189 90.3824 20.508C89.9463 20.4146 89.5025 20.2977 89.051 20.1576C88.6214 20.0252 88.2067 19.8491 87.8131 19.6321C87.4503 19.4336 87.1385 19.1539 86.9021 18.8146C86.6581 18.449 86.5356 18.0158 86.5518 17.5766C86.548 17.1423 86.6427 16.7127 86.8288 16.3203C87.0149 15.9279 87.2875 15.5828 87.6262 15.311C88.49 14.6483 89.5643 14.3205 90.6509 14.3883C91.6763 14.3341 92.6897 14.6306 93.524 15.2291C93.8865 15.5099 94.1875 15.8621 94.4085 16.2639C94.6295 16.6656 94.7657 17.1084 94.8087 17.5649H92.3328C92.1809 16.8058 91.6087 16.397 90.6277 16.397C90.2169 16.3628 89.8063 16.4655 89.4598 16.689C89.3386 16.7643 89.2386 16.8692 89.1691 16.9938C89.0997 17.1184 89.063 17.2588 89.0626 17.4015C89.0626 17.7052 89.2612 17.9386 89.6583 18.1138C90.1641 18.3379 90.6927 18.5062 91.2349 18.6159C91.9356 18.7794 92.5897 18.9548 93.1853 19.1533C93.7264 19.3207 94.2165 19.622 94.6101 20.0293C94.9868 20.5013 95.1742 21.0966 95.1357 21.6992C95.1612 22.3057 94.989 22.904 94.6452 23.4043C94.277 23.9268 93.7661 24.3323 93.1736 24.5722C92.4559 24.8854 91.6793 25.0406 90.8963 25.0275Z" fill="white"/>
<path d="M98.0206 24.9344C97.8054 24.9397 97.5913 24.9019 97.3908 24.8237C97.1904 24.7456 97.0074 24.6283 96.8527 24.4787C96.7066 24.3384 96.5908 24.1697 96.5125 23.9829C96.4342 23.7961 96.3949 23.5952 96.3972 23.3927C96.3938 23.1865 96.4325 22.9818 96.5108 22.7911C96.5891 22.6003 96.7054 22.4276 96.8527 22.2833C97.1692 21.9887 97.5883 21.8293 98.0206 21.8393C98.453 21.8281 98.8726 21.9877 99.1884 22.2833C99.3357 22.4276 99.452 22.6003 99.5303 22.7911C99.6086 22.9818 99.6473 23.1865 99.6439 23.3927C99.6462 23.5952 99.6069 23.7961 99.5286 23.9829C99.4503 24.1697 99.3345 24.3384 99.1884 24.4787C99.0345 24.6294 98.8517 24.7475 98.651 24.8257C98.4503 24.904 98.2359 24.941 98.0206 24.9344Z" fill="white"/>
<path d="M104.841 25.0275C104.102 25.054 103.367 24.9103 102.692 24.6072C102.176 24.3671 101.742 23.9815 101.442 23.4978C101.172 23.0293 101.031 22.4972 101.034 21.9561C101.024 21.5012 101.125 21.0509 101.329 20.644C101.532 20.237 101.832 19.8857 102.201 19.6204C103.179 18.9673 104.346 18.659 105.518 18.7445H108.099V18.4992C108.124 18.2139 108.083 17.9267 107.98 17.6595C107.877 17.3924 107.714 17.1522 107.504 16.9576C107.087 16.6242 106.565 16.4504 106.032 16.4671C105.543 16.4555 105.06 16.585 104.642 16.8407C104.442 16.9716 104.272 17.1435 104.144 17.3448C104.015 17.546 103.93 17.7721 103.895 18.0085H101.337C101.392 17.3068 101.652 16.6367 102.085 16.0816C102.526 15.5272 103.101 15.0932 103.755 14.8202C104.496 14.5177 105.291 14.3708 106.091 14.3883C107.322 14.3192 108.536 14.7058 109.501 15.4743C109.927 15.8594 110.26 16.3357 110.476 16.8675C110.693 17.3992 110.786 17.973 110.75 18.546V24.7823H108.52L108.275 23.1474C107.969 23.6939 107.536 24.1585 107.013 24.502C106.36 24.8947 105.602 25.078 104.841 25.0275ZM105.437 22.9837C105.765 23.001 106.093 22.9438 106.397 22.8164C106.7 22.689 106.971 22.4948 107.188 22.2481C107.618 21.7271 107.894 21.0958 107.983 20.4261H105.752C105.226 20.378 104.699 20.5099 104.257 20.7999C104.114 20.9099 103.999 21.0516 103.92 21.2137C103.841 21.3758 103.8 21.554 103.801 21.7343C103.794 21.9139 103.832 22.0923 103.912 22.2535C103.991 22.4147 104.11 22.5536 104.257 22.657C104.604 22.8921 105.018 23.0067 105.437 22.9837Z" fill="white"/>
<path d="M112.642 29.2906V14.6336H114.978L115.27 16.0818C115.629 15.6185 116.068 15.223 116.566 14.9139C117.206 14.5512 117.935 14.3772 118.669 14.4118C119.569 14.3983 120.455 14.6368 121.226 15.1007C121.976 15.5664 122.589 16.2236 123.001 17.0045C123.453 17.8477 123.683 18.7922 123.667 19.7488C123.685 20.702 123.456 21.6437 123.001 22.4818C122.589 23.2593 121.976 23.9126 121.226 24.3739C120.454 24.8342 119.568 25.0687 118.669 25.051C117.974 25.0692 117.285 24.9212 116.66 24.6191C116.102 24.3586 115.623 23.9558 115.27 23.4512V29.3491L112.642 29.2906ZM118.108 22.7387C118.492 22.7518 118.875 22.6837 119.231 22.5388C119.588 22.3939 119.909 22.1755 120.175 21.8978C120.452 21.6098 120.668 21.2691 120.811 20.8959C120.953 20.5227 121.019 20.1249 121.004 19.7257C121.018 19.3249 120.951 18.9253 120.809 18.5504C120.667 18.1755 120.451 17.8325 120.175 17.5416C119.912 17.2585 119.592 17.0349 119.235 16.8858C118.879 16.7368 118.494 16.6657 118.108 16.6774C117.721 16.6648 117.336 16.7343 116.977 16.8813C116.619 17.0282 116.296 17.2492 116.029 17.5299C115.759 17.8213 115.548 18.1631 115.41 18.5359C115.272 18.9086 115.208 19.3051 115.223 19.7023C115.207 20.1015 115.27 20.4997 115.409 20.8745C115.547 21.2492 115.758 21.593 116.029 21.8861C116.296 22.1668 116.619 22.3878 116.977 22.5348C117.336 22.6817 117.721 22.7512 118.108 22.7387Z" fill="white"/>
<path d="M125.489 29.2906V14.6336H127.825L128.117 16.0818C128.476 15.6185 128.915 15.223 129.413 14.9139C130.052 14.5512 130.781 14.3772 131.515 14.4118C132.415 14.3983 133.301 14.6368 134.073 15.1007C134.824 15.5695 135.439 16.2257 135.86 17.0045C136.303 17.8507 136.527 18.7938 136.514 19.7488C136.53 20.7004 136.305 21.6407 135.86 22.4818C135.439 23.2572 134.823 23.9095 134.073 24.3739C133.3 24.8342 132.414 25.0687 131.515 25.051C130.821 25.0679 130.132 24.9199 129.506 24.6191C128.949 24.3586 128.469 23.9558 128.117 23.4512V29.3491L125.489 29.2906ZM130.955 22.7387C131.339 22.7496 131.721 22.6807 132.077 22.5359C132.433 22.3912 132.754 22.1738 133.022 21.8978C133.295 21.6078 133.508 21.2665 133.648 20.8936C133.788 20.5207 133.854 20.1239 133.839 19.7257C133.866 18.9184 133.572 18.1332 133.022 17.5416C132.757 17.2603 132.437 17.0379 132.08 16.889C131.724 16.7401 131.341 16.668 130.955 16.6774C130.567 16.6626 130.181 16.7311 129.823 16.8781C129.464 17.0252 129.141 17.2474 128.876 17.5299C128.326 18.1172 128.032 18.8986 128.058 19.7023C128.031 20.5099 128.325 21.2953 128.876 21.8861C129.141 22.1687 129.464 22.3911 129.823 22.5382C130.181 22.6853 130.567 22.7535 130.955 22.7387Z" fill="white"/>
<path d="M19.2233 16.514C19.2672 15.6025 19.0174 14.7011 18.5108 13.9421C18.0041 13.1832 17.2673 12.6068 16.4087 12.2978V10.7561C16.4087 10.6043 16.3483 10.4588 16.241 10.3515C16.1337 10.2442 15.9882 10.1839 15.8364 10.1839C15.6835 10.1838 15.5367 10.244 15.4275 10.351C15.3183 10.458 15.2555 10.6033 15.2525 10.7561V11.924C14.869 11.8269 14.4785 11.7606 14.0846 11.7256V10.7561C14.0846 10.6043 14.0242 10.4588 13.9169 10.3515C13.8096 10.2442 13.6641 10.1839 13.5123 10.1839C13.3605 10.1839 13.2149 10.2442 13.1076 10.3515C13.0003 10.4588 12.9401 10.6043 12.9401 10.7561V11.6554H7.66122C7.35757 11.6554 7.17065 11.7957 7.17065 12.0409V12.1227C7.17065 12.7067 7.98826 12.9636 7.98826 13.8979V23.9883C7.98826 24.9343 7.17065 25.1562 7.17065 25.7518V25.8337C7.17065 26.0789 7.35757 26.2306 7.66122 26.2306H12.1809C12.4612 26.2306 12.6715 26.0789 12.6715 25.8337V25.7518C12.6715 25.1796 11.7488 24.9343 11.7488 23.9883V21.6526H12.9167V22.5519C12.9167 22.7036 12.977 22.8491 13.0843 22.9565C13.1917 23.0638 13.3372 23.1241 13.4889 23.1241C13.6407 23.1241 13.7862 23.0638 13.8935 22.9565C14.0009 22.8491 14.0612 22.7036 14.0612 22.5519V21.6292C14.4548 21.5978 14.8453 21.5355 15.2291 21.4424V22.5519C15.2321 22.7047 15.295 22.8503 15.4041 22.9573C15.5133 23.0643 15.6602 23.1241 15.813 23.1241C15.9648 23.1241 16.1104 23.0638 16.2178 22.9565C16.3251 22.8491 16.3853 22.7036 16.3853 22.5519V21.0336C17.2632 20.6601 18.0058 20.027 18.5132 19.219C19.0205 18.411 19.2684 17.467 19.2233 16.514ZM13.3839 20.1693H12.6247C11.9473 20.1693 11.6787 19.8189 11.6787 19.1882V14.0613C11.6787 13.4423 11.9473 13.0685 12.4144 13.0685H12.7064C13.9794 13.0685 15.3926 14.6921 15.3926 17.3782C15.3692 18.8614 14.7152 20.1693 13.3605 20.1693H13.3839Z" fill="white"/>
<path d="M25.2263 5.87446H14.2248V1.07433C14.224 0.892602 14.1775 0.71398 14.0898 0.55483C14.002 0.395679 13.8758 0.261338 13.7225 0.163634C13.5628 0.0777671 13.3843 0.0327606 13.2029 0.0327606C13.0215 0.0327606 12.843 0.0777671 12.6832 0.163634L0.60722 6.00305H0.537222H0.46708L0.35032 6.10798C0.305041 6.15337 0.265817 6.20454 0.233561 6.25995C0.229407 6.29877 0.229407 6.33775 0.233561 6.37657V6.44671V6.56361C0.233561 6.56361 0.233561 6.56341 0.233561 6.64516C0.22716 6.68774 0.22716 6.73117 0.233561 6.77375V30.9839C0.233561 31.2689 0.3467 31.5423 0.548199 31.7438C0.749698 31.9453 1.02296 32.0583 1.30792 32.0583H25.4598C25.7427 32.0552 26.013 31.9407 26.212 31.7395C26.411 31.5384 26.5226 31.2669 26.5226 30.9839V6.99558C26.5335 6.82986 26.5057 6.66379 26.4416 6.51058C26.3776 6.35736 26.2788 6.22118 26.1532 6.11254C26.0276 6.0039 25.8786 5.92604 25.7177 5.88472C25.5569 5.84341 25.3887 5.8398 25.2263 5.87446ZM24.1518 29.8628H2.14891V8.02347H24.1518V29.8628Z" fill="white"/>
</g>
<defs>
<clipPath id="clip0_2580_5678">
<rect width="136.491" height="32" fill="black"/>
</clipPath>
</defs>
</svg>
